<svg xmlns="http://www.w3.org/2000/svg" viewBox="0 0 350 350"><defs><style>.cls-1{fill:#666;}.cls-2{fill:#fff;}.cls-2,.cls-8,.cls-9{stroke:#000;stroke-miterlimit:10;}.cls-3{font-size:6.93px;letter-spacing:0.1em;}.cls-10,.cls-3{font-family:MyriadPro-Regular, Myriad Pro;}.cls-4{letter-spacing:0.13em;}.cls-5{letter-spacing:0.1em;}.cls-6{letter-spacing:0.12em;}.cls-7{letter-spacing:0.1em;}.cls-8,.cls-9{fill:none;}.cls-9{stroke-width:3px;}.cls-10{font-size:12px;letter-spacing:0.1em;}.cls-11{letter-spacing:0.13em;}.cls-12{letter-spacing:0.1em;}.cls-13{letter-spacing:0.1em;}.cls-14{letter-spacing:0.12em;}</style></defs><title>1 item</title><g id="Слой_2" data-name="Слой 2"><g id="Слой_1-2" data-name="Слой 1"><g id="_1_item" data-name="1 item"><rect class="cls-1" width="350" height="350"/><g id="_1_icon" data-name="1 icon"><g id="belveder_1"><rect class="cls-2" x="213.09" y="141.91" width="41.82" height="43.59"/><rect class="cls-2" x="211" y="137" width="46" height="7.22"/><text class="cls-3" transform="translate(219.78 165.58) scale(0.72 1)">Б<tspan class="cls-4" x="4.45" y="0">Е</tspan><tspan class="cls-5" x="8.74" y="0">Л</tspan><tspan x="13.55" y="0">Ь</tspan><tspan class="cls-5" x="17.99" y="0">В</tspan><tspan class="cls-6" x="22.44" y="0">Е</tspan><tspan class="cls-7" x="26.68" y="0">ДЕР</tspan></text><path class="cls-8" d="M212.88,141.62c0,6.7,9.35,12.12,20.91,12.12"/><path class="cls-8" d="M254.7,141.62c0,6.7-9.35,12.12-20.91,12.12"/><line class="cls-9" x1="228.35" y1="153.46" x2="238.4" y2="153.46"/><path d="M212.88,143.12a1.5,1.5,0,0,0,0-3,1.5,1.5,0,0,0,0,3Z"/><path d="M254.7,143.12a1.5,1.5,0,0,0,0-3,1.5,1.5,0,0,0,0,3Z"/></g><g id="belveder_1-2" data-name="belveder_1"><rect class="cls-2" x="124" y="120" width="100" height="75.5"/><rect class="cls-2" x="119" y="111.5" width="110" height="12.5"/><text class="cls-10" transform="translate(140 161)">Б<tspan class="cls-11" x="7.72" y="0">Е</tspan><tspan class="cls-12" x="15.13" y="0">Л</tspan><tspan x="23.46" y="0">Ь</tspan><tspan class="cls-13" x="31.16" y="0">В</tspan><tspan class="cls-14" x="38.87" y="0">Е</tspan><tspan class="cls-12" x="46.21" y="0">ДЕР</tspan></text><path class="cls-8" d="M123.5,119.5c0,11.61,22.36,21,50,21"/><path class="cls-8" d="M223.5,119.5c0,11.61-22.36,21-50,21"/><line class="cls-9" x1="160.49" y1="140" x2="184.51" y2="140"/><path d="M123.5,121a1.5,1.5,0,0,0,0-3,1.5,1.5,0,0,0,0,3Z"/><path d="M223.5,121a1.5,1.5,0,0,0,0-3,1.5,1.5,0,0,0,0,3Z"/></g></g></g></g></g></svg>