<svg xmlns="http://www.w3.org/2000/svg" viewBox="0 0 350 350"><defs><style>.cls-1{fill:#666;}.cls-2{fill:#fff;stroke:#000;stroke-miterlimit:10;}</style></defs><title>2 item</title><g id="Слой_2" data-name="Слой 2"><g id="Слой_1-2" data-name="Слой 1"><g id="_2_item" data-name="2 item"><rect class="cls-1" width="350" height="350"/><path class="cls-2" d="M236,100.19c34.84,15.56-5.29,66.47-16.7,80.94C205.45,198.75,189.86,212,179.68,220c-4.16-3.55-38.36-33-39.83-34.33-20.66-19-40.21-57.13-27.48-76.34a24.38,24.38,0,0,1,11-9.14c9.08-4,26.46-7.14,39.65-3.72,12.26,3.17,15.83,10.64,16.7,12.78a26,26,0,0,1,16.7-12.78C209.57,93.05,227,96.14,236,100.19Z"/></g></g></g></svg>