<svg xmlns="http://www.w3.org/2000/svg" viewBox="0 0 716.14 500.07"><defs><style>.cls-1{isolation:isolate;}.cls-2{fill:#cbcbcb;}.cls-3{fill:#c3c3c3;}.cls-4{fill:#6f6f6f;}.cls-5{fill:#717171;}.cls-6{fill:#020202;}.cls-7{fill:#ccc;}.cls-8{fill:#676767;}.cls-9{fill:#1a1a1a;}.cls-10{fill:#212121;}</style></defs><title>calc</title><g id="Слой_2" data-name="Слой 2"><g id="calc"><g class="cls-1"><polygon class="cls-2" points="502.69 175.98 534.41 209 443.82 238.6 412.1 205.58 502.69 175.98"/><path class="cls-2" d="M274,189.06c9.43-3.08,22.4-.13,28.82,6.55s4,14.69-5.45,17.77l-24.48,8c-9.43,3.08-22.41.13-28.84-6.56s-4-14.68,5.47-17.76Z"/><polygon class="cls-2" points="549.44 224.64 581.17 257.66 490.58 287.26 458.85 254.24 549.44 224.64"/><polygon class="cls-3" points="429.15 243.4 425.05 266.4 334.45 296 338.55 273 429.15 243.4"/><polygon class="cls-2" points="397.42 210.38 429.15 243.4 338.55 273 306.83 239.98 397.42 210.38"/><polygon class="cls-2" points="594.53 271.56 626.26 304.58 535.67 334.18 503.94 301.16 594.53 271.56"/><polygon class="cls-2" points="444.18 259.04 475.9 292.06 385.31 321.66 353.58 288.64 444.18 259.04"/><polygon class="cls-2" points="292.13 244.78 323.86 277.8 233.26 307.4 201.54 274.38 292.13 244.78"/><polygon class="cls-2" points="489.26 305.96 520.99 338.98 430.4 368.58 398.67 335.56 489.26 305.96"/><polygon class="cls-2" points="338.88 293.44 370.61 326.46 280.02 356.06 248.29 323.04 338.88 293.44"/><path class="cls-2" d="M631.61,330.23c8.07-2.64,19.19-.11,24.71,5.63s3.39,12.58-4.67,15.21l-271.8,88.82c-8.06,2.63-19.18.1-24.68-5.63s-3.42-12.59,4.65-15.22Z"/><polygon class="cls-4" points="712.03 355.33 707.93 378.33 343.12 497.54 347.21 474.53 712.03 355.33"/><polygon class="cls-5" points="347.21 474.53 343.12 497.54 4.13 144.76 8.23 121.75 347.21 474.53"/><path class="cls-6" d="M4.1,120.8,373.8,0,716.14,356.27l-369.7,120.8ZM712,355.33,373,2.55,8.23,121.75l339,352.78L712,355.33"/><path class="cls-7" d="M333.87,40.46c15.54-5.07,36.77-.24,47.37,10.79L428,99.91c10.58,11,6.56,24.1-9,29.18l-252.19,82.4c-15.53,5.07-36.77.24-47.35-10.77L72.73,152.06c-10.59-11-6.58-24.12,9-29.19Z"/><path class="cls-6" d="M332.2,38.73c16.88-5.52,40-.26,51.49,11.72l46.75,48.66c11.51,12,7.15,26.21-9.73,31.73l-252.18,82.4c-16.88,5.52-40,.26-51.49-11.72L70.29,152.86c-11.52-12-7.15-26.21,9.73-31.73ZM428,99.91,381.24,51.25c-10.6-11-31.83-15.86-47.37-10.79L81.69,122.87c-15.54,5.07-19.55,18.16-9,29.19l46.76,48.66c10.58,11,31.82,15.84,47.35,10.77L419,129.09c15.53-5.08,19.55-18.17,9-29.18"/><path class="cls-8" d="M373,2.55,8.23,121.76l339,352.77L712,355.33Zm253.22,302-90.6,29.6-31.72-33,90.59-29.6,31.73,33M444.17,259l31.73,33-90.59,29.6-31.73-33L444.17,259M338.55,273l-31.72-33,90.59-29.6,31.72,33L338.55,273m150.71,33L521,339l-90.59,29.6-31.73-33L489.26,306m91.91-48.3-90.59,29.6-31.73-33,90.59-29.6,31.73,33M534.41,209l-90.59,29.6-31.73-33,90.6-29.6,31.72,33m-70-66.19c6.44,6.7,4,14.69-5.45,17.77l-24.48,8c-9.41,3.08-22.38.12-28.82-6.57s-4-14.68,5.45-17.75l24.48-8c9.43-3.08,22.41-.13,28.82,6.55M117,201.52,70.28,152.86c-11.51-12-7.14-26.21,9.74-31.73L332.2,38.73c16.88-5.52,40-.26,51.49,11.72l46.75,48.66c11.51,12,7.15,26.21-9.73,31.73l-252.19,82.4c-16.87,5.52-40,.26-51.48-11.72m180.3,11.86-24.48,8c-9.43,3.08-22.41.13-28.84-6.56s-4-14.68,5.47-17.76l24.48-8c9.43-3.08,22.4-.13,28.82,6.55s4,14.69-5.45,17.77M168.13,239.61c-6.42-6.67-4-14.67,5.46-17.75l24.49-8c9.41-3.07,22.38-.12,28.8,6.56s4,14.69-5.43,17.76l-24.49,8c-9.43,3.08-22.4.13-28.83-6.57m33.41,34.77,90.59-29.6,31.73,33-90.6,29.6-31.72-33M248.29,323l90.59-29.6,31.73,33L280,356.06l-31.73-33M325.11,403l-31.73-33L384,340.36l31.73,33L325.11,403m326.54-51.9-271.8,88.81c-8.06,2.63-19.18.1-24.68-5.63s-3.42-12.59,4.65-15.22l271.79-88.81c8.07-2.64,19.19-.11,24.7,5.63s3.4,12.58-4.66,15.22"/><path class="cls-2" d="M434.45,168.58l24.48-8c9.43-3.08,11.89-11.07,5.45-17.77s-19.39-9.63-28.82-6.55l-24.48,8c-9.41,3.07-11.86,11.07-5.45,17.75S425,171.66,434.45,168.58Z"/><path class="cls-2" d="M198.08,213.86c9.41-3.07,22.38-.12,28.8,6.56s4,14.69-5.43,17.76l-24.49,8c-9.43,3.08-22.4.13-28.83-6.57s-4-14.67,5.46-17.75Z"/><polygon class="cls-2" points="383.97 340.36 415.7 373.38 325.11 402.98 293.38 369.96 383.97 340.36"/><polygon class="cls-9" points="716.14 356.27 712.04 379.27 342.34 500.07 346.44 477.07 716.14 356.27"/><polygon class="cls-10" points="346.44 477.07 342.34 500.07 0 143.81 4.1 120.8 346.44 477.07"/></g></g></g></svg>