<svg xmlns="http://www.w3.org/2000/svg" xmlns:xlink="http://www.w3.org/1999/xlink" viewBox="0 0 651.75 709"><defs><style>.cls-1,.cls-10,.cls-11,.cls-12,.cls-13,.cls-14,.cls-15,.cls-5,.cls-6,.cls-7,.cls-8,.cls-9{stroke:#000;stroke-miterlimit:10;}.cls-1,.cls-3{fill:url(#Безымянный_градиент_47);}.cls-2{isolation:isolate;}.cls-4{clip-path:url(#clip-path);}.cls-5{fill:url(#Безымянный_градиент_47-3);}.cls-6{fill:none;}.cls-7{fill:url(#Безымянный_градиент_47-4);}.cls-8{fill:url(#Безымянный_градиент_47-5);}.cls-9{fill:url(#Безымянный_градиент_47-6);}.cls-10{fill:url(#Безымянный_градиент_47-7);}.cls-11{fill:url(#Безымянный_градиент_47-8);}.cls-12{fill:url(#Безымянный_градиент_47-9);}.cls-13{fill:url(#Безымянный_градиент_47-10);}.cls-14{fill:url(#Безымянный_градиент_47-11);}.cls-15{fill:url(#Безымянный_градиент_47-12);}.cls-16{font-size:60px;font-family:MyriadPro-Regular, Myriad Pro;}</style><linearGradient id="Безымянный_градиент_47" x1="64.65" y1="407.43" x2="92.19" y2="407.43" gradientUnits="userSpaceOnUse"><stop offset="0" stop-color="#fff"/><stop offset="1" stop-color="#bdccd4"/></linearGradient><clipPath id="clip-path"><path class="cls-1" d="M64.65,635.78l.9-488.55c0,10.7,8.54,21.57,26.64,31.85l-.91,488.55C73.19,657.35,64.63,646.47,64.65,635.78Z"/></clipPath><linearGradient id="Безымянный_градиент_47-3" x1="64.65" y1="407.43" x2="92.19" y2="407.43" xlink:href="#Безымянный_градиент_47"/><linearGradient id="Безымянный_градиент_47-4" x1="91.28" y1="428.3" x2="586.1" y2="428.3" xlink:href="#Безымянный_градиент_47"/><linearGradient id="Безымянный_градиент_47-5" x1="41.96" y1="124.91" x2="609.77" y2="124.91" xlink:href="#Безымянный_градиент_47"/><linearGradient id="Безымянный_градиент_47-6" x1="47.88" y1="66.67" x2="603.93" y2="66.67" xlink:href="#Безымянный_градиент_47"/><linearGradient id="Безымянный_градиент_47-7" x1="47.88" y1="119.24" x2="603.88" y2="119.24" gradientTransform="matrix(0, 1, -1, 0, 444.51, -206.86)" xlink:href="#Безымянный_градиент_47"/><linearGradient id="Безымянный_градиент_47-8" x1="47.88" y1="121.6" x2="76.38" y2="121.6" xlink:href="#Безымянный_градиент_47"/><linearGradient id="Безымянный_градиент_47-9" x1="0.5" y1="138.63" x2="33.9" y2="138.63" xlink:href="#Безымянный_градиент_47"/><linearGradient id="Безымянный_градиент_47-10" x1="6.5" y1="96.53" x2="645.34" y2="96.53" xlink:href="#Безымянный_градиент_47"/><linearGradient id="Безымянный_градиент_47-11" x1="33.79" y1="164.71" x2="651.25" y2="164.71" xlink:href="#Безымянный_градиент_47"/><linearGradient id="Безымянный_градиент_47-12" x1="0.61" y1="90.86" x2="651.25" y2="90.86" xlink:href="#Безымянный_градиент_47"/></defs><title>Ресурс 9</title><g id="Слой_2" data-name="Слой 2"><g id="Слой_1-2" data-name="Слой 1"><g class="cls-2"><g class="cls-2"><path class="cls-3" d="M64.65,635.78l.9-488.55c0,10.7,8.54,21.57,26.64,31.85l-.91,488.55C73.19,657.35,64.63,646.47,64.65,635.78Z"/><g class="cls-4"><g class="cls-2"><path class="cls-5" d="M64.65,635.78l.9-488.55c0,10.7,8.54,21.57,26.64,31.85l-.91,488.55c-18.09-10.28-26.65-21.16-26.63-31.85"/></g></g><path class="cls-6" d="M64.65,635.78l.9-488.55c0,10.7,8.54,21.57,26.64,31.85l-.91,488.55C73.19,657.35,64.63,646.47,64.65,635.78Z"/></g><path class="cls-7" d="M586.06,149.08c0,.19,0,.38,0,.57s0,.43-.06.65,0,.38-.07.57-.07.44-.1.65-.07.38-.11.57-.09.43-.14.65-.09.38-.14.57-.13.45-.19.68-.1.33-.16.5-.16.48-.24.71l-.17.48-.32.77-.17.41c-.16.36-.33.71-.51,1.07a1,1,0,0,1,0,.1c-.2.39-.41.78-.62,1.16-.07.13-.15.25-.22.37l-.47.79c-.09.15-.19.3-.29.44s-.3.48-.47.71-.21.32-.32.47l-.39.54c-.45.61-.92,1.21-1.42,1.81l-.25.29c-.52.62-1.07,1.23-1.65,1.85l0,0c-.59.61-1.21,1.22-1.85,1.83l-.33.31c-.63.59-1.28,1.17-2,1.75l-.39.33c-.71.59-1.44,1.19-2.21,1.78l-.22.17c-.75.58-1.53,1.15-2.34,1.72l-.3.21c-.84.59-1.72,1.18-2.61,1.77l-.49.31c-.89.58-1.81,1.15-2.76,1.72l-.93.55-.74.43-1.17.66-.71.41-1.43.77-.5.28-2,1-.62.31c-.49.25-1,.5-1.49.74l-.83.41-1.34.64-.92.43-1.32.61-1,.44-1.29.57-1.3.56-1.16.5-1.35.56-1.18.49-1.39.55-1.21.48c-.47.19-1,.37-1.44.55l-1.21.47c-1,.36-1.92.72-2.9,1.07l-.06,0L529.57,193l-1,.33-2.09.71-1.21.4-1.94.64-1.16.37-2.94.92-.84.25c-1.24.38-2.5.76-3.78,1.13l-.9.26-3.09.87-1.16.32c-1.21.34-2.44.67-3.68,1l-.35.09c-1.82.48-3.68,1-5.56,1.41l-.73.19q-2.71.66-5.51,1.31l-1,.23q-2.78.63-5.62,1.25l-1,.21q-2.89.63-5.88,1.23l-1.2.24-3,.59-1.54.3-2.9.55-1.54.28-3.32.6-1.13.2-4.51.77-1,.16-3.61.59-1.59.25-3.13.48-1.71.26-3.26.47-1.54.22-4.82.67q-3.33.45-6.67.86l-2.15.27c-1.52.18-3.05.37-4.58.54l-2.54.29-4.28.47-2.61.27-4.36.44-2.48.24c-1.66.16-3.31.31-5,.45l-1.87.17c-2.28.2-4.57.38-6.85.56l-1.36.1-5.52.41-2.43.16-4.51.29-2.2.13q-4.51.27-9.05.49h-.35c-2.95.15-5.9.27-8.85.38l-2,.08q-3.27.12-6.55.21l-.92,0c-2.47.07-5,.12-7.43.17l-2.3,0-4.85.07-2.57,0c-1.58,0-3.15,0-4.73,0H322l-6.92-.07-1.2,0-5.67-.1-2.37-.06-4.51-.11-2.6-.08c-1.46,0-2.92-.09-4.37-.15l-2.6-.09-4.49-.19-2.37-.1-5.6-.28-1.22-.06q-3.41-.18-6.78-.39l-1.85-.12c-1.65-.11-3.3-.21-4.94-.33l-2.41-.17c-1.46-.11-2.93-.21-4.38-.33l-2.49-.19-4.47-.37-2.28-.2-5.51-.5-1.11-.11c-2.23-.21-4.44-.44-6.64-.67l-1.89-.2-4.72-.52-2.29-.27c-1.53-.17-3.05-.36-4.56-.54l-2.17-.27-5.38-.7L213,212.6l-6.59-.92-1.8-.27-4.82-.73-2-.32q-2.88-.45-5.72-.93l-1-.17q-3.3-.56-6.52-1.14l-1.58-.29q-3-.54-5.85-1.11l-1.37-.26c-2.25-.45-4.47-.9-6.67-1.37l-3-.64-1.46-.31c-1.54-.34-3.07-.68-4.58-1l-.59-.14-3.93-.93-1.5-.37-2.82-.71-2.77-.71-2.08-.54-2.81-.77-1.92-.52-3-.86-1.63-.47L133.23,196l-.77-.24-.24-.07-3.55-1.13-1-.33-3.32-1.11L124,193c-1.2-.41-2.38-.83-3.55-1.25l-.93-.33-2.89-1.08-.65-.24c-1.13-.43-2.24-.87-3.33-1.3l-.8-.33-2.66-1.09-.74-.31c-1.06-.45-2.1-.91-3.13-1.36l-.62-.29-2.51-1.15-.78-.37c-1-.47-1.95-.94-2.91-1.42l-.37-.19c-.84-.42-1.67-.85-2.48-1.28l-.73-.39c-.92-.49-1.82-1-2.7-1.49l-.91,488.55c.88.5,1.79,1,2.7,1.48.24.14.49.27.74.4.8.42,1.62.85,2.46,1.27l.39.2c1,.48,1.92.95,2.91,1.42l.77.36c.82.39,1.66.77,2.51,1.16l.63.28c1,.46,2.06.91,3.12,1.36l.74.31,2.66,1.1.8.32c1.1.44,2.21.87,3.33,1.3l.64.24c1,.37,1.94.73,2.92,1.09l.91.32c1.17.43,2.35.84,3.56,1.26l.36.12c1.1.38,2.21.75,3.34,1.12l1,.32c1.18.39,2.37.77,3.58,1.14l.2.07h.06l.8.24c1.21.38,2.43.75,3.67,1.11.55.17,1.11.32,1.66.48l3,.85,1.92.53,2.82.77,2.05.53,2.79.72.7.18,2.13.52,1.49.37,4,.95.53.12,4.59,1,1.43.31,2.49.53.52.11c2.19.46,4.41.92,6.65,1.36l1.4.27q2.88.56,5.82,1.1l1,.19.6.1c2.16.39,4.33.78,6.53,1.15l1,.16,5.74.94.93.15,1.1.17,4.83.73,1.79.26q3.27.48,6.59.93l.19,0,1,.13c1.77.24,3.56.47,5.35.69l2.18.27,4.58.55,1.29.16,1,.1,4.76.53,1.86.2,6.63.67h.15l1,.09c1.82.18,3.65.35,5.48.51l2.25.19,4.49.37,1.18.1,1.31.1,4.37.32,2.43.18,4.91.32,1.51.1.36,0c2.26.14,4.51.27,6.78.39l1.22.07c1.86.09,3.73.19,5.6.27l.68,0,1.69.07c1.49.06,3,.13,4.49.18l2.61.1,4.35.15,1.55.05,1.07,0,4.5.12,2.37,0,5.73.11h1.14q3.45.06,6.93.07h9.43l4.74,0,2.58,0,4.83-.07,1.66,0H345l7.44-.18.92,0,6.54-.22c.31,0,.61,0,.91,0l1.09,0c3-.12,5.92-.24,8.87-.38l.32,0c3-.14,6-.31,9.07-.49l1.06-.05,1.13-.08,4.51-.29,2.43-.16,5.53-.4,1.35-.1,6.85-.56,1.88-.17,5-.45,2.48-.24,4.36-.44,2.61-.27,4.29-.48,2.53-.28,4.59-.55,2.14-.26,6.67-.86,4.82-.67,1.54-.22,3.26-.48,1.72-.26,3.12-.48,1.6-.25,3.59-.58,1-.17,4.51-.77,1.12-.2,3.34-.59,1.52-.28,2.92-.55,1.54-.3,3-.6.95-.18.23-.05c2-.41,4-.82,5.9-1.24l1-.2c1.9-.42,3.77-.83,5.62-1.26l1-.22q2.79-.64,5.5-1.32l.74-.18q2.82-.71,5.55-1.42h.06l.3-.08,3.68-1,1.14-.32,3.12-.88.88-.25,3.79-1.13.82-.26c1-.3,2-.61,2.95-.92l.59-.18.57-.19,1.94-.63,1.22-.4,2.07-.71,1-.34,3-1h0c1-.36,2-.71,2.91-1.08l.18-.06,1-.39,1.46-.56,1.2-.48,1.39-.56,1.19-.49,1.34-.55,1.16-.5,1.3-.56.3-.13,1-.44,1-.45,1.29-.6,1-.44,1.33-.64.84-.4,1.5-.75.6-.3,0,0,2-1,.51-.28c.48-.25,1-.51,1.42-.77l.71-.4,1.17-.66.75-.44.72-.42.2-.12c.95-.57,1.87-1.14,2.76-1.72l.49-.32c.9-.58,1.77-1.17,2.62-1.76l.09-.07.2-.15q1.21-.86,2.34-1.71l.23-.17c.76-.6,1.49-1.19,2.2-1.79l.23-.18.16-.15c.68-.58,1.34-1.16,2-1.74l.33-.32c.65-.61,1.27-1.22,1.85-1.83h0l0,0c.59-.61,1.13-1.23,1.66-1.85l.24-.28c.5-.6,1-1.21,1.42-1.81l.13-.17.26-.37.33-.47.47-.71.28-.44.47-.79.22-.37.62-1.15h0l0-.09c.18-.36.35-.73.51-1.09.06-.13.11-.26.17-.4s.22-.52.32-.78l.17-.47.25-.72.15-.49c0-.15.09-.3.13-.44l.06-.25c0-.18.1-.37.14-.56s.1-.44.14-.66.08-.37.11-.56.07-.44.1-.66,0-.37.07-.56.05-.44.07-.66,0-.38,0-.57a2.64,2.64,0,0,0,0-.29c0-.23,0-.46,0-.69l.91-488.55C586.09,148.42,586.08,148.75,586.06,149.08Z"/><path class="cls-8" d="M580.72,90.64C511.7,51.43,341.65,35,200.9,53.91S2,120,71,159.18s239.07,55.66,379.82,36.73S649.74,129.85,580.72,90.64ZM328.47,126.39c-2.93.39-6.47,0-7.91-.77s-.22-1.79,2.71-2.19,6.46-.05,7.9.77S331.4,126,328.47,126.39Z"/><path class="cls-9" d="M575.48,57.3c-2.6-1.48-5.4-2.91-8.3-4.33l-2.54-1.2q-3.46-1.62-7.15-3.18c-.8-.34-1.58-.68-2.39-1-3.23-1.32-6.56-2.6-10-3.84L543,43q-4.37-1.53-9-3c-.56-.17-1.07-.36-1.63-.54s-1.46-.42-2.17-.64q-2.67-.81-5.42-1.59c-1.47-.42-3-.84-4.45-1.25-1.89-.52-3.81-1-5.74-1.52-1-.26-1.93-.52-2.92-.77l-1.18-.28q-7.49-1.86-15.4-3.55l-1.21-.28c-.68-.15-1.41-.27-2.1-.41q-6.19-1.29-12.62-2.48c-.58-.11-1.13-.24-1.71-.34l-.67-.11q-6.9-1.26-14-2.38l-1.08-.18-2.78-.41q-5.1-.78-10.3-1.5l-2.41-.35L444,21.19q-5-.66-10.14-1.26c-1-.12-2-.26-3-.37-.36,0-.74-.08-1.1-.12q-7-.8-14.11-1.49h-.14l-1.21-.11q-6.37-.6-12.84-1.12l-1.34-.12-3.52-.25c-3.18-.23-6.38-.46-9.59-.67l-2.41-.17-3.06-.16q-4.64-.27-9.3-.5L369,14.66l-2.17-.08c-3.27-.14-6.56-.26-9.85-.37l-3.68-.14-1.19,0q-6.58-.2-13.21-.29l-1.28,0h-.13c-4.92-.07-9.86-.09-14.8-.09h-1l-3.4,0q-5.43,0-10.88.12l-2.16,0c-1,0-2,.06-3,.09q-5.73.12-11.46.32c-1.05,0-2.1,0-3.15.08l-1.49.08q-9.47.36-18.9.91l-1.4.07-1.42.11q-14.35.89-28.53,2.21l-2.62.24q-15,1.45-29.71,3.41c-5.53.74-10.88,1.54-16.14,2.37l-3.1.49q-7.56,1.23-14.75,2.57l-2.61.5c-1.9.37-3.83.72-5.68,1.1-1.65.33-3.19.69-4.8,1-2.12.45-4.22.9-6.28,1.36-2.88.65-5.67,1.32-8.44,2-1.92.47-3.87.93-5.73,1.42-.66.17-1.38.32-2,.49q-5.07,1.35-9.86,2.74l-1.27.39c-2.49.73-4.95,1.47-7.32,2.23-1.13.36-2.21.74-3.32,1.11l-1.94.64c-2.91,1-5.76,2-8.48,3-.4.15-.75.31-1.14.47-2,.78-3.93,1.58-5.86,2.38-1.34.56-2.79,1.09-4.07,1.66-.33.14-.61.3-.94.44-1.42.64-2.72,1.29-4.07,1.93S82.91,53,81.62,53.62c-.39.2-.72.41-1.1.61-1.16.6-2.22,1.22-3.32,1.83s-2.28,1.21-3.32,1.83c-.49.29-.91.6-1.39.9-1,.61-1.91,1.22-2.84,1.84-.77.5-1.62,1-2.35,1.51s-1.11.88-1.7,1.31c-.82.61-1.62,1.22-2.38,1.84-.47.38-1,.75-1.47,1.13-.72.61-1.3,1.23-2,1.85S58.5,69.44,57.91,70c-.23.24-.53.47-.76.72-.83.86-1.49,1.74-2.2,2.62-.41.49-.87,1-1.24,1.48-.09.11-.2.22-.28.33a32.35,32.35,0,0,0-2.82,4.6h0s0,.08,0,.12a26.19,26.19,0,0,0-1.82,4.67c0,.09,0,.17,0,.26-.18.69-.21,1.39-.33,2.09A21.62,21.62,0,0,0,48,89.66c0,.25,0,.49,0,.74l0,28.38a21.65,21.65,0,0,1,.44-3.48c.12-.7.14-1.4.33-2.1a26,26,0,0,1,1.85-4.92l0-.12a33.53,33.53,0,0,1,3.1-4.93c.37-.5.84-1,1.25-1.48.91-1.12,1.87-2.24,3-3.35.58-.59,1.24-1.17,1.88-1.76,1.07-1,2.2-2,3.42-3,.77-.62,1.57-1.23,2.39-1.84q1.92-1.42,4-2.82c.93-.62,1.86-1.24,2.85-1.84,1.49-.92,3.09-1.83,4.71-2.74,1.1-.61,2.16-1.22,3.31-1.82,1.66-.87,3.45-1.71,5.22-2.56,1.36-.65,2.66-1.3,4.08-1.93,1.6-.71,3.32-1.4,5-2.1,1.93-.8,3.82-1.6,5.86-2.39,3.09-1.18,6.29-2.35,9.64-3.48.63-.22,1.28-.43,1.92-.64q5.13-1.71,10.64-3.34l1.28-.39c3.81-1.11,7.81-2.19,11.89-3.24,1.86-.48,3.8-.94,5.71-1.41,2.78-.67,5.57-1.34,8.46-2,2.05-.46,4.16-.91,6.27-1.36,3.44-.73,6.9-1.44,10.48-2.13l2.62-.5c4.78-.9,9.71-1.75,14.75-2.57l3.09-.49c5.27-.83,10.62-1.63,16.14-2.37,9.77-1.32,19.69-2.44,29.7-3.41l2.66-.25q14.15-1.32,28.51-2.2c.94-.06,1.87-.13,2.81-.18q9.44-.55,18.91-.92l4.64-.16c3.81-.13,7.61-.23,11.41-.32,1.74,0,3.48-.08,5.22-.1q5.42-.09,10.83-.12l4.41,0q7.41,0,14.8.08l1.41,0q6.62.11,13.21.29c1.63,0,3.24.11,4.87.16q4.94.16,9.84.37l5.45.26q4.67.22,9.3.49l5.46.34c3.22.2,6.41.43,9.6.67l4.86.37q6.38.51,12.65,1.1l1.56.14q7.11.69,14.08,1.49c1.38.15,2.73.32,4.09.49,3.39.4,6.75.81,10.08,1.25l4.75.64q5.17.72,10.26,1.5l3.87.59q7.13,1.13,14,2.37c.81.15,1.59.31,2.4.45q6.42,1.2,12.61,2.48l3.31.7q7.91,1.7,15.4,3.55c1.38.34,2.74.7,4.1,1,1.93.5,3.85,1,5.73,1.51l4.45,1.26q2.75.78,5.42,1.59c1.29.39,2.55.78,3.8,1.18q4.6,1.45,9,3c.68.23,1.39.46,2.06.7Q550.22,74,555,76l2.39,1c2.47,1,4.85,2.09,7.15,3.17.86.4,1.72.8,2.55,1.21,2.89,1.41,5.69,2.85,8.3,4.33,19.32,11,28.47,22.59,28.45,34l0-28.37C604,79.9,594.81,68.28,575.48,57.3Z"/><ellipse class="cls-10" cx="325.88" cy="119.24" rx="77.19" ry="277.94" transform="translate(206.04 444.89) rotate(-89.89)"/><path class="cls-11" d="M47.93,90.4l0,14.19c0,5,0,9.93,0,14.19,0,11.42,9.12,23,28.45,34l0-28.37C57.05,113.44,47.91,101.82,47.93,90.4Z"/><path class="cls-12" d="M.61,90.32.5,147.13c0,13.36,10.67,27,33.29,39.81l.11-56.81C11.28,117.28.58,103.69.61,90.32Z"/><path class="cls-13" d="M612.65,58C535,13.86,343.68-4.64,185.32,16.66S-38.46,91,39.19,135.09s269,62.62,427.32,41.32S690.3,102.09,612.65,58ZM450.89,167.53C310.13,186.46,140.08,170,71.07,130.81S60.2,44.46,201,25.54s310.81-2.49,379.82,36.72S591.64,148.61,450.89,167.53Z"/><path class="cls-14" d="M651.12,93.49c0,.46-.07.92-.13,1.38s-.21,1.13-.32,1.7-.18.9-.3,1.35c-.06.23-.15.46-.21.69a30.15,30.15,0,0,1-2,5.21l0,0a39.07,39.07,0,0,1-3,4.91c-.16.23-.31.46-.48.69a50.93,50.93,0,0,1-3.79,4.51c-.27.3-.55.59-.83.88-1.44,1.48-3,3-4.7,4.42l-.75.61q-2.62,2.19-5.65,4.35l-.44.32c-2.14,1.5-4.45,3-6.88,4.45-.4.25-.8.5-1.21.74q-3.72,2.19-7.85,4.33l-1.45.74q-4.43,2.23-9.3,4.4l-2.47,1.08c-1.07.46-2.14.92-3.24,1.37L593,142.9c-1.12.45-2.26.89-3.41,1.33-1,.39-2,.77-3,1.15q-2.19.81-4.46,1.61L579,148.06c-1.58.54-3.2,1.08-4.83,1.61l-2.9.94c-3,1-6.14,1.92-9.33,2.84-.52.16-1.07.3-1.6.46q-4.11,1.17-8.39,2.32l-2.64.69c-4.36,1.13-8.83,2.24-13.45,3.31l-2.16.5c-4.81,1.09-9.72,2.17-14.79,3.19l-2.27.45q-4.15.82-8.43,1.62l-3.78.69q-3.72.66-7.53,1.31l-4,.68c-2.65.44-5.35.86-8.06,1.28l-3.68.56c-3.94.59-7.92,1.16-12,1.7-11.44,1.54-23.06,2.85-34.78,4l-3.06.28q-16.59,1.56-33.42,2.59c-1.08.07-2.15.15-3.23.21q-11.06.65-22.16,1.07l-5.44.19q-6.69.22-13.37.37l-6.06.13q-6.39.11-12.76.13c-1.69,0-3.38,0-5.07,0q-8.68,0-17.32-.1l-1.88,0q-7.66-.1-15.28-.33c-1.88-.05-3.76-.12-5.64-.19-3.85-.12-7.7-.26-11.53-.43-2.15-.09-4.3-.2-6.44-.3q-5.43-.27-10.81-.58c-2.15-.13-4.29-.25-6.43-.39q-5.65-.37-11.26-.79l-5.63-.43q-7.42-.58-14.75-1.29l-1.91-.17q-8.31-.79-16.46-1.73l-4.81-.58q-6-.71-11.8-1.47l-5.51-.74q-6.09-.85-12.06-1.76l-4.49-.68c-5.56-.89-11.05-1.81-16.43-2.78l-2.79-.53q-7.52-1.4-14.75-2.9c-1.68-.35-3.38-.7-5-1.06l-4.43-1q-3.63-.81-7.19-1.66l-4.29-1c-1.95-.48-3.86-1-5.77-1.47-2.25-.58-4.49-1.17-6.69-1.77-1.76-.48-3.49-1-5.22-1.47-2.14-.61-4.26-1.24-6.35-1.87-1.49-.45-3-.91-4.43-1.38q-5.39-1.69-10.48-3.47c-.8-.29-1.63-.56-2.43-.84-4.06-1.45-8-3-11.73-4.49-1-.39-1.86-.79-2.79-1.18q-4.34-1.83-8.38-3.73c-1-.46-2-.93-3-1.4-3.39-1.66-6.66-3.34-9.71-5.07l-.11,56.81c3.05,1.73,6.33,3.41,9.71,5.06l3,1.41c2.7,1.26,5.5,2.51,8.39,3.72.93.4,1.83.8,2.78,1.18q5.65,2.31,11.74,4.5l2.42.83q5.1,1.79,10.49,3.48c.65.21,1.24.43,1.9.63.82.26,1.69.5,2.52.75q3.14.94,6.35,1.86,2.59.75,5.23,1.47,3.3.9,6.68,1.77c1.16.3,2.27.62,3.44.91l2.32.56,4.33,1q3.52.84,7.13,1.65l4.5,1,2.54.56c.79.17,1.64.31,2.44.48,4.84,1,9.76,2,14.78,2.9l2,.4.79.13q8.07,1.46,16.42,2.78l1.26.21c1.06.17,2.17.31,3.23.47q6,.92,12.06,1.76l2.83.41,2.68.34q5.88.77,11.86,1.48c1.16.13,2.29.29,3.45.43l1.28.13q8.16.93,16.49,1.74l.2,0c.56.06,1.14.1,1.7.15q7.32.69,14.76,1.29l1.54.13c1.35.11,2.73.19,4.08.29q5.61.42,11.27.79l2.82.2c1.19.08,2.4.12,3.6.19,3.59.21,7.2.41,10.81.58,1.3.07,2.58.15,3.88.21l2.57.1q5.75.24,11.53.43c1.43,0,2.84.12,4.27.16l1.37,0q7.62.21,15.27.33l1.71,0h.17q8.64.11,17.32.09h1.14c1.31,0,2.62,0,3.93,0q6.38,0,12.76-.14l2.55,0c1.17,0,2.34-.08,3.51-.1q6.69-.15,13.38-.38c1.23,0,2.46-.05,3.69-.1l1.75-.08q11.1-.43,22.16-1.08l1.6-.07c.54,0,1.08-.1,1.62-.13q16.83-1,33.43-2.59l3.06-.29q17.58-1.69,34.77-4c4.06-.55,8-1.12,12-1.7l3.69-.57q4.06-.63,8.06-1.27l4.05-.68c2.54-.43,5-.87,7.53-1.32l3.78-.68c2.85-.53,5.65-1.08,8.43-1.63l2-.38.3-.06c5.08-1,10-2.1,14.8-3.2l2.15-.49q6.93-1.6,13.46-3.32c.39-.1.82-.19,1.2-.3s.94-.26,1.42-.39q4.32-1.14,8.46-2.33l1.53-.44q4.8-1.39,9.35-2.84l.84-.26c.7-.22,1.36-.46,2-.68l4.85-1.62,3-1.06,4.48-1.62c.55-.21,1.13-.4,1.67-.61l1.36-.53c1.16-.44,2.3-.89,3.43-1.34l3.07-1.24,3.25-1.38,1.85-.78.61-.29q4.89-2.17,9.31-4.41l.76-.36c.24-.12.44-.25.67-.37,2.76-1.43,5.39-2.87,7.86-4.34.17-.09.36-.18.52-.28s.45-.3.69-.45c2.43-1.47,4.75-3,6.89-4.45a1.25,1.25,0,0,1,.12-.08l.31-.24c2-1.44,3.9-2.89,5.66-4.36.16-.14.37-.27.53-.41s.13-.13.21-.2c1.71-1.46,3.27-2.93,4.71-4.42.14-.15.32-.29.47-.44s.22-.29.35-.43a51.18,51.18,0,0,0,3.8-4.52l.2-.24c.1-.15.17-.3.27-.44a39.9,39.9,0,0,0,3-4.91v0h0a30.79,30.79,0,0,0,2-5.21c0-.13.12-.27.15-.4s0-.2.07-.3c.12-.45.2-.9.29-1.35s.24-1.13.32-1.69.09-.93.13-1.39.11-.82.12-1.22,0-.58,0-.87l.1-56.8C651.25,92.1,651.18,92.79,651.12,93.49Z"/><path class="cls-15" d="M618,51.59C538.88,6.66,344-12.19,182.73,9.5S-45.19,85.2,33.9,130.13s273.94,63.77,435.23,42.08S697.05,96.52,618,51.59ZM448.29,160.38c-137.82,18.53-304.33,2.43-371.91-36S65.74,39.87,203.57,21.34s304.33-2.43,371.91,36S586.12,141.85,448.29,160.38Z"/></g><text class="cls-16" transform="translate(204.58 443.5) rotate(6.02)">Б</text><text class="cls-16" transform="translate(237.82 446.94) rotate(3.97)">Е</text><text class="cls-16" transform="matrix(1, 0.04, -0.04, 1, 268.52, 449.08)">Л</text><text class="cls-16" transform="translate(303.9 450.47) rotate(0.93)">Ь</text><text class="cls-16" transform="translate(336.19 451) rotate(-0.43)">В</text><text class="cls-16" transform="translate(368.46 450.75) rotate(-1.87)">Е</text><text class="cls-16" transform="translate(399.06 449.82) rotate(-3.72)">Д</text><text class="cls-16" transform="translate(437.75 447.22) rotate(-5.94)">Е</text><text class="cls-16" transform="translate(468.22 444.09) rotate(-8.48)">Р</text></g></g></svg>